<svg data-v-0dd9719b="" version="1.0" xmlns="http://www.w3.org/2000/svg" xmlns:xlink="http://www.w3.org/1999/xlink" width="100%" height="100%" viewBox="0 0 340.000000 250.000000" preserveAspectRatio="xMidYMid meet" color-interpolation-filters="sRGB" style="margin: auto;"> <rect data-v-0dd9719b="" x="0" y="0" width="100%" height="100%" fill="#fff" fill-opacity="1" class="background"></rect> <rect data-v-0dd9719b="" x="0" y="0" width="100%" height="100%" fill="url(#watermark)" fill-opacity="1" class="watermarklayer"></rect> <g data-v-0dd9719b="" fill="#333" class="icon-text-wrapper icon-svg-group iconsvg" transform="translate(47.93999481201172,96.55157661437988)"><g class="iconsvg-imagesvg" transform="translate(0,0)"><g><rect fill="#333" fill-opacity="0" stroke-width="2" x="0" y="0" width="60" height="56.89684601816906" class="image-rect"></rect> <svg x="0" y="0" width="60" height="56.89684601816906" filtersec="colorsb9217453916" class="image-svg-svg primary" style="overflow: visible;"><svg xmlns="http://www.w3.org/2000/svg" viewBox="0.0033845901489257812 0.002187013626098633 119.87319946289062 113.67306518554688"><path d="M68.78 93.53c2.61-2 3.86-5.11 5.3-7.89-10.86-5.12-23.69-3.23-33.47 3.36-7.71 5.21-21 11.67-25.21-2.06-.45 11.84 8.35 23.69 20 26.29 14.35 3 25.39-9.78 33.37-19.74M32.54 55.31c8.88-11.12 7.89-19.2 5.2-32.12C36 14.4 46.35-.94 56.85 2.65c-13.19-7-31.22.62-36.69 14.17a29.26 29.26 0 0 0-.72 21c1.61 4.39 7.36 17.49 13.1 17.49M99.74 32.88c-4.31-1.17-22.7-4.66-21.45 2.69a27.19 27.19 0 0 0 11.13 17.32c4.84 3.5 10.41 3.86 15.61 6.37 5.92 4 7.9 11.84 5.92 18.48 16-14 9.42-39.66-11.21-44.86" fill="#2e439a"></path><path d="M87.27 57.28c0 3.68-5.48 8.8-6.64 12.83A36.16 36.16 0 0 0 80.72 89c3.28 10.63-6.82 19.78-16.51 21.67 13.73 5.38 30.68.62 36.69-13.46 6.73-15.7-1.07-30.15-13.63-39.93M44.38 82.32c-1.7-10.32-8.16-20.82-18.3-24.5S5.53 47.15 10.2 34.23c-27 22.78 4.93 64.06 34.18 48.09M45.1 29.65c10 4 21.53 3.68 30.95-2 10.68-7.63 21.17-12.29 28.35 2C106.11 15.65 95.43 1 81 .31c-7.81-.45-15.79 4-21.36 9.24-4.31 3.95-14.54 14.09-14.54 20.1" fill="#8270b2"></path><path d="M42.68 57.1A17.23 17.23 0 1 1 59.9 74.33 17.22 17.22 0 0 1 42.68 57.1z" fill="#2e439a"></path></svg></svg> <!----></g></g> <g transform="translate(67,0.9984226226806641)"><g data-gra="path-name" fill-rule="" class="tp-name iconsvg-namesvg"><g transform="scale(1)"><g><path d="M2.7 6.72Q2.94 4.2 3.57 3 4.2 1.8 5.82 0.18L5.82 0.18Q10.02-4.2 12.6-7.11 15.18-10.02 19.62-15.42L19.62-15.42Q18.78-22.8 18.54-30.72L18.54-30.72Q18.36-35.04 18.15-36.99 17.94-38.94 17.25-39.99 16.56-41.04 15.06-41.04L15.06-41.04Q13.2-41.04 11.88-39.63 10.56-38.22 9.9-36.09 9.24-33.96 9.24-31.92L9.24-31.92Q9.24-29.82 10.02-28.08L10.02-28.08Q7.26-28.08 5.97-29.31 4.68-30.54 4.68-32.64L4.68-32.64Q4.68-35.16 6.33-37.65 7.98-40.14 10.68-41.76 13.38-43.38 16.38-43.38L16.38-43.38Q20.16-43.38 21.99-40.74 23.82-38.1 24.27-34.56 24.72-31.02 24.78-25.86L24.78-25.86 24.9-22.2Q33-33.12 38.22-43.68L38.22-43.68Q38.76-43.32 39.33-42.33 39.9-41.34 39.9-40.5L39.9-40.5Q39.9-38.16 35.73-31.89 31.56-25.62 25.02-17.64L25.02-17.64Q25.5-9.12 26.88-3.69 28.26 1.74 30.78 1.74L30.78 1.74Q32.58 1.74 35.04-1.35 37.5-4.44 41.34-10.92L41.34-10.92 42.66-9.84Q39.96-4.56 37.95-1.47 35.94 1.62 33.84 3.21 31.74 4.8 29.28 4.8L29.28 4.8Q24.66 4.8 22.68 0.21 20.7-4.38 19.98-11.46L19.98-11.46Q14.88-5.46 9.96-0.3 5.04 4.86 2.7 6.72L2.7 6.72ZM51.42-25.26Q50.16-25.26 49.29-25.86 48.42-26.46 48.42-27.6L48.42-27.6Q48.42-28.98 49.95-30.03 51.48-31.08 53.22-31.08L53.22-31.08Q55.8-31.08 55.8-28.86L55.8-28.86Q55.8-27.6 54.42-26.43 53.04-25.26 51.42-25.26L51.42-25.26ZM44.34 1.8Q41.82 1.8 40.44 0.3 39.06-1.2 39.06-3.54L39.06-3.54Q39.06-5.94 40.41-10.05 41.76-14.16 43.83-17.28 45.9-20.4 48-20.4L48-20.4Q48.78-20.4 49.29-19.95 49.8-19.5 49.8-18.66L49.8-18.66Q49.8-18.12 49.32-17.19 48.84-16.26 47.76-14.52L47.76-14.52Q45.84-11.34 44.73-8.91 43.62-6.48 43.62-4.32L43.62-4.32Q43.62-2.46 44.28-1.8 44.94-1.14 46.32-1.14L46.32-1.14Q51.06-1.14 55.74-10.32L55.74-10.32 56.64-9.36Q54.54-4.08 51.3-1.14 48.06 1.8 44.34 1.8L44.34 1.8ZM74.4 1.2Q72.12 1.2 70.86 0.06 69.6-1.08 69.6-2.94L69.6-2.94Q69.6-3.72 69.87-4.74 70.14-5.76 70.44-6.78L70.44-6.78Q71.28-9.54 71.28-10.86L71.28-10.86Q71.28-12.06 70.68-12.63 70.08-13.2 69.18-13.2L69.18-13.2Q66-13.2 62.76-9.21 59.52-5.22 55.8 0.9L55.8 0.9Q53.22 0.9 51.9-0.84L51.9-0.84 52.44-2.34Q55.98-10.92 55.98-15.06L55.98-15.06Q56.46-15.6 57.36-16.05 58.26-16.5 59.1-16.5L59.1-16.5Q60.12-16.5 60.66-16.02 61.2-15.54 61.2-14.7L61.2-14.7Q61.2-13.08 60.18-9.36L60.18-9.36Q62.88-12.96 65.79-15.24 68.7-17.52 71.52-17.52L71.52-17.52Q73.92-17.52 75.24-15.87 76.56-14.22 76.56-11.94L76.56-11.94Q76.56-10.62 76.23-9.42 75.9-8.22 75.24-6.72L75.24-6.72Q74.22-4.2 74.22-2.94L74.22-2.94Q74.22-2.04 74.64-1.62 75.06-1.2 75.66-1.2L75.66-1.2Q77.64-1.2 79.95-3.93 82.26-6.66 84.12-10.38L84.12-10.38 85.14-9.54Q82.98-4.56 80.37-1.68 77.76 1.2 74.4 1.2L74.4 1.2ZM98.22 11.22Q94.38 11.22 91.98 9.66 89.58 8.1 89.58 5.28L89.58 5.28Q89.58 3.36 90.78 1.89 91.98 0.42 94.14-0.06L94.14-0.06Q93.48 2.94 93.48 4.02L93.48 4.02Q93.48 6.48 94.83 7.8 96.18 9.12 98.94 9.12L98.94 9.12Q103.26 9.12 105.84 6.06 108.42 3 109.59-1.08 110.76-5.16 111.84-11.22L111.84-11.22Q112.68-15.78 113.1-17.22L113.1-17.22Q110.58-13.14 107.52-10.92 104.46-8.7 100.56-8.7L100.56-8.7Q96.78-8.7 94.98-10.8 93.18-12.9 93.18-16.38L93.18-16.38Q93.18-18.36 93.66-20.67 94.14-22.98 95.16-26.82L95.16-26.82Q96.06-30.24 96.54-32.43 97.02-34.62 97.02-36.36L97.02-36.36Q97.02-40.68 93.78-40.68L93.78-40.68Q91.74-40.68 90.36-39.15 88.98-37.62 88.29-35.37 87.6-33.12 87.6-30.9L87.6-30.9Q87.6-30 87.75-29.34 87.9-28.68 88.32-27.54L88.32-27.54Q85.56-27.54 84.27-28.8 82.98-30.06 82.98-32.16L82.98-32.16Q82.98-34.62 84.6-37.2 86.22-39.78 89.01-41.49 91.8-43.2 95.1-43.2L95.1-43.2Q98.52-43.2 100.32-41.34 102.12-39.48 102.12-36.6L102.12-36.6Q102.12-35.34 101.73-33.54 101.34-31.74 100.44-28.5L100.44-28.5Q99.36-24.54 98.82-22.14 98.28-19.74 98.28-17.58L98.28-17.58Q98.28-11.94 102.54-11.94L102.54-11.94Q106.38-11.94 109.68-16.05 112.98-20.16 115.08-26.34L115.08-26.34Q115.44-27.3 115.86-28.74 116.28-30.18 116.46-30.9L116.46-30.9Q118.32-36.96 119.64-40.08 120.96-43.2 122.64-43.2L122.64-43.2Q123.36-43.2 124.53-42.57 125.7-41.94 126.72-40.92L126.72-40.92Q124.5-37.5 123.24-34.53 121.98-31.56 120.72-27 119.46-22.44 116.82-11.58L116.82-11.58Q115.2-5.04 113.19-0.21 111.18 4.62 107.52 7.92 103.86 11.22 98.22 11.22L98.22 11.22ZM125.58 2.82Q123.48 2.82 122.07 1.44 120.66 0.06 120.66-2.46L120.66-2.46Q120.66-5.94 123.21-10.26 125.76-14.58 129.72-17.58 133.68-20.58 137.64-20.58L137.64-20.58Q140.28-20.58 142.05-19.23 143.82-17.88 143.82-15.78L143.82-15.78Q143.82-13.02 140.4-12.9L140.4-12.9Q142.56-12.24 142.56-11.1L142.56-11.1Q142.56-10.68 142.14-9.84 141.72-9 141.18-8.1L141.18-8.1Q140.22-6.54 139.68-5.37 139.14-4.2 139.14-3.18L139.14-3.18Q139.14-2.28 139.59-1.65 140.04-1.02 140.94-1.02L140.94-1.02Q142.62-1.02 145.23-3.36 147.84-5.7 150.3-10.38L150.3-10.38 151.44-9.24Q149.22-4.26 145.92-1.23 142.62 1.8 139.26 1.8L139.26 1.8Q136.86 1.8 135.57 0.21 134.28-1.38 134.28-3.42L134.28-3.42Q131.58-0.18 129.66 1.32 127.74 2.82 125.58 2.82L125.58 2.82ZM126.84-0.24Q128.94-0.24 131.73-3.27 134.52-6.3 138.06-11.16L138.06-11.16 139.26-12.78Q139.44-13.08 139.74-13.08L139.74-13.08 139.98-13.02Q140.28-13.98 140.28-15.24L140.28-15.24Q140.28-18.36 137.76-18.36L137.76-18.36Q135.12-18.36 132.24-15.54 129.36-12.72 127.41-8.82 125.46-4.92 125.46-2.16L125.46-2.16Q125.46-1.14 125.79-0.69 126.12-0.24 126.84-0.24L126.84-0.24ZM169.08 1.2Q166.8 1.2 165.54 0.06 164.28-1.08 164.28-2.94L164.28-2.94Q164.28-3.72 164.55-4.74 164.82-5.76 165.12-6.78L165.12-6.78Q165.96-9.54 165.96-10.86L165.96-10.86Q165.96-12.06 165.36-12.63 164.76-13.2 163.86-13.2L163.86-13.2Q160.68-13.2 157.44-9.21 154.2-5.22 150.48 0.9L150.48 0.9Q147.9 0.9 146.58-0.84L146.58-0.84 147.12-2.34Q150.66-10.92 150.66-15.06L150.66-15.06Q151.14-15.6 152.04-16.05 152.94-16.5 153.78-16.5L153.78-16.5Q154.8-16.5 155.34-16.02 155.88-15.54 155.88-14.7L155.88-14.7Q155.88-13.08 154.86-9.36L154.86-9.36Q157.56-12.96 160.47-15.24 163.38-17.52 166.2-17.52L166.2-17.52Q168.6-17.52 169.92-15.87 171.24-14.22 171.24-11.94L171.24-11.94Q171.24-10.62 170.91-9.42 170.58-8.22 169.92-6.72L169.92-6.72Q168.9-4.2 168.9-2.94L168.9-2.94Q168.9-2.04 169.32-1.62 169.74-1.2 170.34-1.2L170.34-1.2Q172.32-1.2 174.63-3.93 176.94-6.66 178.8-10.38L178.8-10.38 179.82-9.54Q177.66-4.56 175.05-1.68 172.44 1.2 169.08 1.2L169.08 1.2Z" transform="translate(-2.700000047683716, 43.68000030517578)"></path></g> <!----> <!----> <!----> <!----> <!----> <!----> <!----></g></g> <!----></g></g><defs v-gra="od"></defs></svg>